<svg width="20" height="20" viewBox="0 0 20 20" fill="none" xmlns="http://www.w3.org/2000/svg">
<g clip-path="url(#clip0_732_2066)">
<path d="M9.84344 20H8.28094C7.50552 20 6.87469 19.3692 6.87469 18.5938V8.90625C6.87469 8.13082 7.50552 7.5 8.28094 7.5H9.84344C10.6189 7.5 11.2497 8.13082 11.2497 8.90625V18.5938C11.2497 19.3692 10.6188 20 9.84344 20Z" fill="#314CA3"/>
<path d="M3.90595 20H2.34345C1.56802 20 0.937195 19.3692 0.937195 18.5938V12.0312C0.937195 11.2558 1.56802 10.625 2.34345 10.625H3.90595C4.68138 10.625 5.3122 11.2558 5.3122 12.0312V18.5938C5.3122 19.3692 4.68134 20 3.90595 20Z" fill="#314CA3"/>
<path d="M15.7812 20H14.2187C13.4433 20 12.8124 19.3692 12.8124 18.5938V5.625H11.9538C11.5524 5.625 11.1988 5.39844 11.0311 5.03375C10.8634 4.66906 10.9215 4.2532 11.1827 3.9484C11.1857 3.94492 11.1887 3.94145 11.1918 3.93805L14.5345 0.207891C14.653 0.0755859 14.8223 0 14.9999 0C15.1776 0 15.3468 0.0755859 15.4654 0.207891L18.8081 3.93805C18.8112 3.94145 18.8142 3.94492 18.8172 3.9484C19.0784 4.25316 19.1365 4.66906 18.9688 5.03375C18.801 5.39844 18.4474 5.625 18.046 5.625H17.1874V18.5938C17.1874 19.3692 16.5566 20 15.7812 20Z" fill="#314CA3"/>
</g>
<defs>
<clipPath id="clip0_732_2066">
<rect width="20" height="20" fill="white"/>
</clipPath>
</defs>
</svg>
