<svg width="20" height="20" viewBox="0 0 20 20" fill="none" xmlns="http://www.w3.org/2000/svg">
<g clip-path="url(#clip0_732_2041)">
<path d="M9.85739 9.63406C11.1809 9.63406 12.327 9.15936 13.2634 8.22278C14.1999 7.28635 14.6746 6.14057 14.6746 4.81688C14.6746 3.49364 14.1999 2.34771 13.2633 1.41097C12.3267 0.474699 11.1808 0 9.85739 0C8.53369 0 7.38792 0.474699 6.45149 1.41113C5.51506 2.34756 5.04021 3.49349 5.04021 4.81688C5.04021 6.14057 5.51506 7.2865 6.45164 8.22293C7.38822 9.1592 8.53415 9.63406 9.85739 9.63406Z" fill="#314CA3"/>
<path d="M18.2862 15.3789C18.2592 14.9892 18.2046 14.5641 18.1242 14.1152C18.043 13.6629 17.9385 13.2354 17.8133 12.8446C17.6841 12.4407 17.5083 12.0419 17.291 11.6596C17.0655 11.2629 16.8006 10.9174 16.5034 10.6332C16.1926 10.3358 15.812 10.0967 15.3719 9.92227C14.9334 9.74878 14.4474 9.66089 13.9276 9.66089C13.7234 9.66089 13.5259 9.74466 13.1446 9.99292C12.91 10.146 12.6354 10.323 12.3291 10.5187C12.0671 10.6857 11.7121 10.8421 11.2738 10.9837C10.8461 11.1221 10.4118 11.1923 9.98318 11.1923C9.55456 11.1923 9.12045 11.1221 8.69229 10.9837C8.25436 10.8422 7.89944 10.6858 7.63776 10.5189C7.33426 10.3249 7.0596 10.1479 6.82141 9.99277C6.44056 9.74451 6.24296 9.66074 6.03879 9.66074C5.51878 9.66074 5.03294 9.74878 4.59455 9.92242C4.1548 10.0965 3.77409 10.3356 3.46297 10.6333C3.16588 10.9177 2.90084 11.2631 2.67562 11.6596C2.45849 12.0419 2.2827 12.4406 2.15331 12.8448C2.02834 13.2355 1.92382 13.6629 1.84264 14.1152C1.76223 14.5635 1.7076 14.9888 1.6806 15.3794C1.65405 15.7621 1.64062 16.1593 1.64062 16.5604C1.64062 17.6044 1.97249 18.4496 2.62694 19.0729C3.2733 19.688 4.12855 20 5.16859 20H14.7987C15.8387 20 16.6937 19.6882 17.3402 19.0729C17.9948 18.4501 18.3266 17.6047 18.3266 16.5603C18.3265 16.1573 18.3129 15.7598 18.2862 15.3789Z" fill="#314CA3"/>
</g>
<defs>
<clipPath id="clip0_732_2041">
<rect width="19.9999" height="20" fill="white"/>
</clipPath>
</defs>
</svg>
